/* XPM */
static char *_3fea539902d4b72e05de4111c16d946YHzvPHfirXLv3f3e[] = {
/* columns rows colors chars-per-pixel */
"64 64 254 2 ",
"   c #9BB94E",
".  c #79A863",
"X  c #79A763",
"o  c #9AB84E",
"O  c #77A562",
"+  c #78A865",
"@  c #99B851",
"#  c #98B752",
"$  c #78A766",
"%  c #79A864",
"&  c #9AB94F",
"*  c #9BB94F",
"=  c #9BB950",
"-  c #9BB951",
";  c #9AB954",
":  c #94B04C",
">  c #95B24C",
",  c #9AB953",
"<  c #9BB952",
"1  c #99B74D",
"2  c #98B54D",
"3  c #99B74E",
"4  c #95B24D",
"5  c #BCAC52",
"6  c #7BAB6D",
"7  c #75A264",
"8  c #9AB952",
"9  c #689377",
"0  c #689277",
"q  c #689276",
"w  c #658E73",
"e  c #648D72",
"r  c #648C74",
"t  c #6F8A5E",
"y  c #7AA968",
"u  c #7CAC72",
"i  c #679175",
"p  c #BFBA5B",
"a  c #BDB95C",
"s  c #BBB95E",
"d  c #679279",
"f  c #6D9881",
"g  c #6D9981",
"h  c #6C9880",
"j  c #6A957C",
"k  c #679075",
"l  c #669074",
"z  c #BDB95B",
"x  c #849E48",
"c  c #77935B",
"v  c #728D5D",
"b  c #91AE52",
"n  c #97B755",
"m  c #82AC74",
"M  c #647F62",
"N  c #6B865F",
"B  c #7A965A",
"V  c #7C9446",
"C  c #90AB4B",
"Z  c #99B74F",
"A  c #8BA74A",
"S  c #3E5443",
"D  c #181E2F",
"F  c #161C2E",
"G  c #587668",
"H  c #6C9565",
"J  c #9AB850",
"K  c #93B55A",
"L  c #95B657",
"P  c #8DB263",
"I  c #7EAA79",
"U  c #679E9B",
"Y  c #B48355",
"T  c #1C232F",
"R  c #5B7665",
"E  c #698460",
"W  c #6D895E",
"Q  c #7DA97A",
"!  c #81AB75",
"~  c #84AD70",
"^  c #89B069",
"/  c #8FB360",
"(  c #76A66B",
")  c #78A767",
"_  c #77A463",
"`  c #68905A",
"'  c #3F5644",
"]  c #516B69",
"[  c #6A9F91",
"{  c #7FAA78",
"}  c #8AB067",
"|  c #8FB35F",
" . c #91B45D",
".. c #7CA97C",
"X. c #6CA093",
"o. c #74A588",
"O. c #8CB164",
"+. c #97B753",
"@. c #96B655",
"#. c #8BB066",
"$. c #76A685",
"%. c #6DA193",
"&. c #6DA192",
"*. c #6A9F97",
"=. c #506A69",
"-. c #669D9D",
";. c #699E99",
":. c #689E96",
">. c #6A9F92",
",. c #6BA08E",
"<. c #6CA18A",
"1. c #6DA188",
"2. c #6EA186",
"3. c #6FA281",
"4. c #52714E",
"5. c #5B7E53",
"6. c #628857",
"7. c #739F64",
"8. c #74A164",
"9. c #709C5E",
"0. c #73A060",
"q. c #76A462",
"w. c #3C5242",
"e. c #263337",
"r. c #1A2130",
"t. c #6A9F96",
"y. c #6A9F98",
"u. c #58878A",
"i. c #568487",
"p. c #578589",
"a. c #DAB570",
"s. c #161D2E",
"d. c #232F35",
"f. c #414439",
"g. c #AAA655",
"h. c #3B3F38",
"j. c #8A9462",
"k. c #171D2E",
"l. c #866353",
"z. c #6E9765",
"x. c #1D2632",
"c. c #86A356",
"v. c #708B5E",
"b. c #6E8443",
"n. c #232B31",
"m. c #1D2530",
"M. c #1C2330",
"N. c #283132",
"B. c #839F57",
"V. c #738365",
"C. c #191E2F",
"Z. c #19202F",
"A. c #728E5D",
"S. c #8EAC53",
"D. c #A9AA5E",
"F. c #4B4E3C",
"G. c #3A504E",
"H. c #96B450",
"J. c #9BA060",
"K. c #202531",
"L. c #AAAB5E",
"P. c #ADAD5D",
"I. c #313535",
"U. c #2E3234",
"Y. c #B9B65C",
"T. c #45483B",
"R. c #BCB85B",
"E. c #ACAC5D",
"W. c #363A37",
"Q. c #B8B55C",
"!. c #BCB75B",
"~. c #8EAB53",
"^. c #171E30",
"/. c #2C3633",
"(. c #95B350",
"). c #27333F",
"_. c #6E8A5E",
"`. c #6A9265",
"'. c #78A763",
"]. c #638666",
"[. c #648866",
"{. c #8BA854",
"}. c #273537",
"|. c #2A3939",
" X c #7BA563",
".X c #97B54F",
"XX c #89A655",
"oX c #384436",
"OX c #171E2F",
"+X c #8A9260",
"@X c #2D3734",
"#X c #B3C449",
"$X c #3B4737",
"%X c #3C4837",
"&X c #1B222F",
"*X c #97944A",
"=X c #708B4F",
"-X c #6B9371",
";X c #181E2E",
":X c #718844",
">X c #718947",
",X c #6C9270",
"<X c #669D9C",
"1X c #86A049",
"2X c #708A4E",
"3X c #6D8F62",
"4X c #6E8543",
"5X c #3A4737",
"6X c #718845",
"7X c #5A7C52",
"8X c #6F8543",
"9X c #181F2F",
"0X c #496449",
"qX c #5A7B53",
"wX c #4C6465",
"eX c #384A51",
"rX c #4E6C5F",
"tX c #4E6C61",
"yX c #4C6565",
"uX c #374950",
"iX c #181E30",
"pX c #4F6B62",
"aX c #1B2333",
"sX c #1A2131",
"dX c #4F6B66",
"fX c #243A4F",
"gX c #2F3D47",
"hX c #57765A",
"jX c #B2B15D",
"kX c #666643",
"lX c #1C2431",
"zX c #587858",
"xX c #BEB95B",
"cX c #BCB85A",
"vX c #9E9B52",
"bX c #54663D",
"nX c #1F2833",
"mX c #A09D53",
"MX c #B8B359",
"NX c #B6B259",
"BX c #9F9C52",
"VX c #8A884D",
"CX c #191F2F",
"ZX c #A7A455",
"AX c #979450",
"SX c #7D9647",
"DX c #7D9547",
"FX c #92AF4C",
"GX c #728844",
"HX c #728944",
"JX c #839D48",
"KX c #91AD4B",
"LX c #748B45",
"PX c #7C9547",
/* pixels */
"    . X o         X O + + @ @ @ # $ + . . . . . . . . . . . . % & &                 o o * * = - - - ; : > , < = * * 1 2 2 3 4 5 ",
". . . . .   . . . . 6 7 X .     . % % .       . . . . .                             *       * = < < 8 9 0 9 0 q 0 = & & w e r t ",
". . . . . . . . . . y u . . . . . $ .                                   i i i i i     i i i       p p a s d f g h j @ k l l i k ",
"i . . . . . . . . . . . . . . . . . .                                 i i i i i i i i i i i i   p p p p p p p i i i i i i p p i ",
"i i p p . . .     . .       . . . .                               i i i p p p p i i i p p i i p p p p p p p p p i i i i p p p p ",
"p p p p p . .                 . . . . . . . . . .           i i i i p p p p p p p p p p p p p p p p p p p p p p p i i p p p p p ",
"p p p p p p p                 . . . . . . . . . . . . . p i i p p p p p p p p p p p p p p p p p p p p . . . p p p p i p p     p ",
"p p p p p p p p p             . . . . . p p p p p p p p p p p p p p p p p p . . . p p p p p p p p p . . . . . p p p p p         ",
"        o z p p             . . p p p p p p p p p p p p             p p . . . . . . . p p . . . . . . . . . . . . .             ",
"      x c v b                                         n m M N B V C Z           . . . . . . . . . . . . . . . . . . . . .       ",
"    A S D F G H $           J K #             J # L P I U F F Y Y F T R M E W Q ! ~ ^ / ( ) + % . . . . . . . . . . . . . . . . ",
"_ ` ' F F F F ] [ { } |  .P ..X.o.O.+.@ @ @.#.$.%.&.*.F F F Y Y Y Y Y =.F F F -.-.-.-.-.-.-.-.;.:.>.,.<.1.2.3.4.5.6.7.8.9.0.q.. ",
"w.e.r.F Y Y Y F F F T ;.t.y.-.Y -.-.u.i.p.u.-.Y Y F F Y Y Y Y a.Y Y Y Y Y F F Y Y F F F F F -.-.-.F F F F F F F F Y Y Y F F s.d.",
"F F F Y Y Y Y Y Y Y Y Y Y F F Y Y Y Y Y Y Y Y Y a.F F a.a.a.a.a.a.a.Y a.a.F F a.Y Y Y Y Y Y Y Y Y F F Y Y Y Y Y Y Y Y Y Y F F F ",
"f.F F Y Y Y a.a.Y a.a.a.a.F F Y Y Y a.a.a.a.a.Y a.F F a.a.a.a.a.a.a.a.a.a.F F a.a.a.a.Y Y Y Y Y a.F F a.a.a.a.a.a.Y a.a.a.F F F ",
"g.h.F F Y a.a.a.Y a.a.a.a.F F a.a.a.Y a.a.a.a.Y a.F F a.a.a.a.a.Y a.a.a.a.F F a.a.a.a.a.Y a.a.a.a.F F a.a.a.a.a.a.Y a.a.F F F F ",
"p j.k.F F l.l.l.l.l.F F F F F F l.l.l.l.l.a.l.l.F F F F l.l.l.l.l.l.F F F F F F F a.l.l.l.l.F F F F F F F l.l.l.l.Y F F F F =.=.",
". z.x.F Y Y l.Y Y Y Y Y Y F F Y Y Y l.Y Y Y Y Y Y F F l.Y Y Y Y l.Y Y Y Y F F Y Y a.Y Y Y Y Y Y Y F F Y Y Y Y Y Y l.Y Y F F =.=.",
"  c.x.F Y Y l.Y Y Y Y Y Y F F Y Y Y l.Y Y Y Y Y Y F F Y Y Y Y Y l.Y Y Y Y F F Y Y l.Y Y Y Y Y Y Y F F l.Y Y Y Y Y l.Y Y F F =.=.",
"o v.F F Y Y Y Y Y Y l.Y Y F F Y Y a.Y Y Y Y Y Y Y F F Y Y Y Y Y l.Y Y Y Y F F Y Y l.Y Y Y l.Y Y Y F F l.Y Y Y Y Y l.Y Y F F =.=.",
"b.n.F F Y Y Y Y Y Y l.Y Y F F Y l.a.Y Y Y Y l.Y Y F F Y Y Y Y Y Y Y Y Y Y F F Y Y Y Y Y Y l.Y Y Y F F l.Y Y Y Y Y Y Y Y F F F F ",
"m.F F F Y Y Y l.Y Y l.Y Y F F Y l.Y Y Y Y Y l.Y Y F F Y Y Y l.Y Y Y Y Y l.F F Y Y Y Y Y Y l.Y Y Y F F Y Y l.Y Y Y Y Y Y F F F F ",
"F F F F F Y Y l.Y Y F Y F F F F l.Y Y Y Y Y F Y F F F F Y Y l.Y Y Y Y Y F F F F Y Y Y Y Y F F Y F F F F Y l.Y Y Y Y Y F F F M.N.",
"B.V.C.F F F F F F F F F F F F F F F F F F F F F F F F F F F F F F F F F F F F F F F F F F F F F F F F F F F F F F F F F F Z.A.S.",
"p D.F.F F F F F F F F F F F F F F F F F F F F F F F F F F F F F F F F F F F F F F F F F F F F F F F F F F F F F F F F F F G.H.  ",
"p p J.F F F F F F F F F F F F F F F F F F F F F F F F F F F F F F F F F F F F F F F F F F F F F F F F F F F F F F F F F K.L.i   ",
"p p P.I.F l.l.l.F F l.l.l.l.l.F F F F F F F F F F F F F F F F F F F F F F F F F F F F F F F F F F l.l.l.l.l.F F l.l.l.F U.Y.p p ",
"p p P.F F l.l.l.l.F l.l.l.l.l.l.F F F F F F F F F F F F F F F F F F F F F F F F F F F F F F F F l.l.F F l.l.F l.l.l.l.F T.R.p p ",
"p p E.F F l.l.l.l.F l.l.l.l.l.l.F F F F F F F F F F F F F F F F F F F F F F F F F F F F F F F F l.l.l.F l.l.F l.l.l.l.F W.Q.p p ",
"p p !.F F F l.l.l.F l.l.l.l.l.l.F F F F F F F F F F F F F F F F F F F F F F F F F F F F F F F F l.l.l.F l.l.l.l.l.l.l.F F ~.p p ",
"p p . F ^.F l.Y Y l.Y Y Y Y Y l.l.F F F F F F F F F F F F F F F F F F F F F F F F F F F F F F F l.Y Y F Y Y l.Y Y l.F F /.(.  p ",
". . . ).F F l.Y Y l.Y Y Y Y Y l.l.F F F F F F F F F F F F F F F F F F F F F F F F F F F F F F l.Y Y Y l.Y Y l.Y Y l.F F _.o     ",
". . . `.F F l.Y Y l.Y Y Y Y Y l.l.F F F F F F F F F F F F F F F F F F F F F F F F F F F F F F l.Y Y Y l.Y Y l.Y Y l.F F B . . . ",
". . '.].F F l.Y Y l.Y l.Y Y Y l.Y F F F F F F F F F F F F F F F F F F F F F F F F F F F F F F l.Y Y Y Y Y Y l.Y Y l.F F [.. . . ",
".   {.}.F F l.Y Y l.Y l.l.Y Y l.Y F F F F F F F F F F F F F F F F F F F F F F F F F F F F F F Y Y Y a.Y l.Y l.Y Y l.F F |. X. . ",
".XXXoXF F F F Y Y l.Y Y l.Y Y Y Y F F F F F F F F F F F F F F F F F F F F F F F F F F F F F F Y Y Y a.Y l.Y l.Y Y F F F OX+X. . ",
"N @XF F F F F Y Y Y Y Y l.a.Y Y Y F F F F F F F F F F F F F F F F F F F F F F F F F F F F F F Y Y a.a.Y l.a.Y Y Y F F F F #X. . ",
"$X%XZ.F F F F Y Y Y Y F l.a.Y Y Y F F F F F F F F F F F F F F F F F F F F F F F F F F F F F F Y Y a.a.Y l.a.Y Y Y F F F &X*X. . ",
"+ J =X-X;XF F l.Y Y Y F Y a.Y Y Y F F F F F F F F F F F F F F F F F F F F F F F F F F F F F F Y Y a.a.F l.a.Y Y l.F F F &Xb.  . ",
"    :X>X,XF F l.Y Y Y F a.a.Y Y Y F F F F F F F F F F F F F F F F F F F F F F F F F F F F F F Y Y a.a.F Y a.Y Y l.F F -.<X1X    ",
"    :X:X2XF F F Y Y Y l.a.a.Y Y Y Y F F F F F F F F F F F F F F F F F F F F F F F F F F F F l.Y Y a.Y F Y Y Y Y F F F <X3X:X    ",
"  :X:X:X4XF F F Y Y Y l.a.a.a.Y Y Y F F F F F F F F F F F F F F F F F F F F F F F F F F F F l.Y Y a.Y l.Y Y Y Y F F F 5X6X:X    ",
". 7X7X:X8XF F F Y Y Y l.a.a.a.Y Y Y F F F F F F F F F F F F F F F F F F F F F F F F F F F F Y Y Y a.Y l.Y Y Y Y F F 9X0X7X:X  . ",
". . 7X7XqXwXF F F Y Y l.a.a.Y Y Y Y F F F F F F F F F F F F F F F F F F F F F F F F F F F F Y Y Y Y Y l.Y Y Y F F F eX7X7X7X. . ",
". . 7X7XrXtXyXF F Y Y Y a.Y Y Y Y Y F F F F F F F F F F F F F F F F F F F F F F F F F F F F Y Y Y Y Y Y Y Y Y F F uXiX7X7X. . . ",
". . . rXrXrXpXF F Y Y Y a.Y Y Y Y Y F F F F F F F F F F F F F F F F F F F F F F F F F F F F Y Y Y Y Y Y Y Y Y F F aXF 7X7X. . . ",
"i i . rXrXrXrXsXF Y Y Y Y Y Y l.Y Y F F F F F F F F F F F F F F F F F F F F F F F F F F F F Y Y Y Y Y Y Y Y Y F F F 7X7X7X. . i ",
"i i i i rXrXrXdXF Y Y Y Y Y Y l.Y Y F F F F fXfXfXfXfXfXfXF F fXF F F F F F F F F F F F F F Y Y l.Y Y Y Y Y F F gX7X7X7X. . i i ",
"i i p p p p k dXF Y l.Y Y Y Y l.Y Y F F F F F F F F F fXF F F F F F F F F F F F F F F F F F Y Y l.Y Y l.Y Y F k.hX7X. . . i i i ",
"p p p p p p jX=.F F l.Y Y Y Y l.Y Y F F F F F F fXfXfXF F F F F F F kXF F F F F F F F F F F Y Y l.Y Y l.Y Y F lXzX. . . . i i i ",
"xXp p p p cXvXF F F l.Y l.Y Y l.l.Y Y F F F F F kXkXbXbXbXbXbXbXbXbXbXbXkXF F F F F F F F Y Y Y l.Y Y l.Y Y F nX5.. . i i i i p ",
"mXMXxXxXNXBXVXVXF F l.Y l.Y Y l.l.Y Y F F F F F F F bXF F F F bXbXbXbXbXbXkXkXkXbXbXF F F Y Y Y l.Y Y l.Y Y F CXZXp p p p i p p ",
"VXVXAXAXVXVXVXVXF F l.l.F Y Y F l.Y Y F F F F F F F F kXkXkXVX:X:X:XF F F F F F F F F F F Y F F F Y l.l.Y Y F F SX: p p p p p p ",
"VXVXVX:X:X:XVXF F F F F F Y l.F l.Y Y F F F VXVXVXVXVXVXVXVXVX:X:X:XVXVX:X:X:X:X:XF F F F F :X:XF F l.l.Y F F :X:XDXFXp p p p p ",
"VXVX:X:X:X:X:XF F F F :XF F l.F l.Y Y F F F F F VXVXVXVXVXVXVX:X:XVXVXVXVXVX:X:XF F :X:X:XF :X:X:XF F l.F F :X:X:XGXHXJXKX1   xX",
"VXVX:X:X:X:XF VX:XF :X:X:XF F :X:X:X:X:XVXVXVXVXVXVXVXVXVXVXVXVXVXVXVXVXVXVXVXVXF F VXVXVXVXVX:X:X:X:X:X:X:X:X:X:X:X:X:XHXLXPXV ",
":X:X:X:X:X:X:XVX:X:X:X:X:X:X:X:X:X:X:X:XVXVXVXVXVX:X:X:XVXVXVXVXVXVXVXVXVX:X:X:X:X:X:X:X:X:X:X:X:X:X:X:X:X:X:X:X:X:X:X:X:X:X:X:X",
":X:X:X:X:X:X:X:X:X:X:X:X:X:X:X:X:X:X:X:X:X:X:X:X:X:X:X:X:X:X:X:X:X:X:X:X:X:X:X:X7X7X7X7X7X7X:X:X:X:X:X:X:X:X:X:X:X:X:X:X:X:X:X:X",
":X:X:X:X:X:X:X:X:X:X:X:X:X:X:X:X:X:X:X:X:X:X:X:X:X:X:X:X:X:X:X:X:X:X:X:X:X:X7X7X7X7X7X7X7X7X7X:X7X7X7X7X:X:X:X:X:X:XVXVXVX:X:X:X",
":X:X:X:X:X:X:X:X7X7X7X:X:X:X:X:X:X:X:X:X:X:X:X:X:X:X:X:X:X:X:X:X:X:X:X:X7X7X7X7X7X7X7X7X7X7X7X7X7X7X7X7X7X:X:X:XVXVXVXVXVXVX:X:X",
"VXVX7X7X7X:X:X7X7X7X7X7X:X:X:X:X:X:X:X:X:X:X:X:X:X:X:X:X:X:X:X:X:X:X:X7X7X7X7X7X7X7X7X7X7X7X7X7X7X7X7X7X7XVXVXVXVXVXVXVXVXVXVXVX",
"VX7X7X7X7X7X7X7X:X:X7X7X7X:X:X:X:X:X:X7X7X7X:X:X:X:X:X:X:X:X:X:X:X7X7X7X7X7X7X:X:X:X:X:X7X7X7X7X7X7X7X7X7X7X7X7XVXVXVXVXVXVXVXVX",
"7X7X:X:X7X7X7X:X:X:X:X7X7X7X:X:X:X:X7X7X7X7X7X:X:X:X7X7X:X:X:X7X7X7X7X7X7X7X:X:X:X:X:X:X:X7X7X7X:X:X:X7X7X7X7X7X7X7XVXVXVX7X7X7X",
"        :X:X:X:X:X:X:X:X:X:X:X:X:X7X7X7X7X7X7X7X7X7X7X7X7X:X:X:X:X:X:X:X:X:X:X:X:X:X:X:X:X7X7X:X:X:X:X:X:X:X:X:X:X:X:X:X:X      "
};
