/* XPM */
static char *bcbb9ed24474451d9f66693a19861c16HH8waEzq6aHTzFd7[] = {
/* columns rows colors chars-per-pixel */
"64 64 4 1 ",
"  c #9BB94E",
". c #79A863",
"X c #679175",
"o c #BFBA5B",
/* pixels */
"  ..     ....    ...............                                ",
"..... ........  ....   .....                       XXXXXX   XXX ",
"...................                 XXXXX  XXX   ooooXXXXX XXXXX",
"X..................                XXXXXXXXXXXX oooooooXXXXXXooX",
"XXoo...  ..   ....               XXXooooXXXooXXoooooooooXXXXoooo",
"ooooo..        ..........     XXXXoooooooooooooooooooooooXXooooo",
"ooooooo        .............oXXoooooooooooooooooooo...ooooXoo  o",
"ooooooooo      .....oooooooooooooooooo...ooooooooo.....ooooo    ",
"     ooo      ..oooooooooooo      oo.......oo.............      ",
"                                        .....................   ",
"   ......                                   ....................",
".........                  oooo                 ................",
".....ooo.                 oooooo            .......   ..........",
"    ooooo             ooooooooooooo    ...........     .......  ",
"oo  oooooo              oooo   ooooo                   ....     ",
"oooooooooo                o     ooooo                         oo",
"ooooo...oooooo                                               ooo",
".........oooooooooo...                                      ....",
"  .........................                                .....",
"   .................................                    ......  ",
"      ..........................                                ",
"       ...    ............                                      ",
"  ooo  ..      .   ..                         XXXXX    XXXXX    ",
" ooooo ..                                   XXXXXXXX  XXXXXXX   ",
"oooooooo..             ooooo               XXXoooXXXXXXXooooXX  ",
"ooooooooo         oooooooooo     XXXXX  XXXXXooooooXXXXoooooooX ",
"ooooooooo      oooooooooooo     XXXXXXXXXXXXXooooooooXoooooooooo",
"ooooooooooo    oooooooooo   XX XXXooXXXXXooXXXoooooooooooooooooo",
"ooooooooooo                XXXXXXooooXXXoooooXoooooooooooooooooo",
"ooo..ooooooooo             XXooXXooooooooooooooooooooooooo    oo",
"oo....ooooooooo        ooXXXooooooooooooooooooooo....oooo      o",
"......oooooo         oooooooooooo   ooooo    ooo......  o       ",
"......             ooooooooooooo     ooo   ...........       ...",
".......           ooo   oooooo       ooo  ...........       ....",
".  .....        oooo     ooo           o  ...............  .....",
"     .....                              ........................",
"                                  ..........   .................",
"                  ...                ......     ..   .......  ..",
".                .....                  ...     .      ....    .",
"          ...   ......            oo                            ",
"         .............           oooo    oooo                   ",
"        .................      oooooooooooooooo        ....     ",
"...    .......................oooooooooooooo....  ...........  .",
"............................     oooooooooo.....................",
"....XXXX.................         oooooo ...   .................",
"...XXXXXX        XXXX...      ooooooooo            .............",
"XX.XXXXXXXXXXX  XXXXXXX.    ooooooooooo       .................X",
"XXXXXXXXXXXXXXXXXoooXXXX   ooooooooooo          ..............XX",
"XXooooXXXXooooXXoooooXXXXooo     ooooo            ...........XXX",
"oooooooXXooooooooooooooooo        ooooo oo            .......XXX",
"oooooooXoooooooooooooooooo          ooooooo           .....XXXXo",
"oooooooooooooooooooooooooo ooo       ooo   o           ooooooXoo",
"ooooooooooooooooooooooooooooooo                       oo  oooooo",
"ooo   ooooo  oooo  oooooooooooo   oo                  o    ooooo",
"oo     oo      o    ooooooooooo  ooooo                         o",
"oo     o            ooooooooooooooooooooooooooo                 ",
"       o            ooooo   ooooooooo                           ",
"                                        ......                  ",
"                                      ......... ....      ooo   ",
"        ...                         .................   oooooo  ",
"oo...  .....                       ..................ooooooooooo",
"o.......  ...      ...           ......     ............oooooooo",
"..  ...    ...    .....   ..   .......       ...   .......ooo...",
"                 ............                ..                 "
};
