/* XPM */
static char *_aea80ca07d140a1af85e6b4406fa996FOadVEfXzMdn2B2T[] = {
/* columns rows colors chars-per-pixel */
"64 64 13 1 ",
"  c #9BB94E",
". c #79A863",
"X c #679175",
"o c #BFBA5B",
"O c #161C2E",
"+ c #E9F044",
"@ c #CEA554",
"# c white",
"$ c #AC7A58",
"% c #4E6C5F",
"& c #5A7C52",
"* c #718844",
"= c #8A884D",
/* pixels */
"  ..     ....    ...............                                ",
"..... ........  ....   .....                       XXXXXX   XXX ",
"...................                 XXXXX  XXX   ooooXXXXX XXXXX",
"X..................                XXXXXXXXXXXX oooooooXXXXXXooX",
"XXoo...  ..   ....               XXXooooXXXooXXoooooooooXXXXoooo",
"ooooo..        ..........     XXXXoooooooooooooooooooooooXXooooo",
"ooooooo        .............oXXoooooooooooooooooooo...ooooXoo  o",
"ooooooooo      .....oooooooooooooooooo...ooooooooo.....ooooo    ",
"     ooo      ..oooooooooooo      oo....OOOOO.............      ",
"                                        OOOOOOO..............   ",
"   ......                               OO+OOOOO................",
".........                  oooo         OO++++OOO...............",
".....ooo.                 oooooo        OO++++++OO.   ..........",
"    ooooo             ooooooooooooo   OOOO+@@++++OO    .......  ",
"oo  oooooo              oooo   ooooo OOOOO+@@@++@@OO   ....     ",
"oooooooooo                o     oooooOOOOOO@@++@@@OOO         oo",
"ooooo...oooooo                      OOO###OOO+@@@@@OO        ooo",
".........oooooooooo...       OOOOOOOOOO####OOO@@OOOOO       ....",
"  .........................OOOOOOOOOOOOO####OOOOOOO        .....",
"   ......................OOOOOO++++++OOOO###+OOOO       ......  ",
"      ..................OOOOO+++####+++OOOO+++OOO               ",
"       ...    ..........OOOO+++#######++@OOO++OOO               ",
"  ooo  ..      .   ..  OOOO++++#######+++@OOOOOOOXX    XXXXX    ",
" ooooo ..              OOOO++++#######+++@OOOOOOXXXX  XXXXXXX   ",
"oooooooo..            OOO++++++###$$##+++@@OOOOooXXXXXXXooooXX  ",
"ooooooooo         ooOOOOO++++++##$$$##++++@@@OOooooXXXXoooooooX ",
"ooooooooo      oOOOOOOOO+++OOOOO$$$###++++@@@OOOoooooXoooooooooo",
"ooooooooooo    OOOOOOO$$@@OOOOOOO$$$++++++@@@OOOoooooooooooooooo",
"ooooooooooo   OOOOO++@@$@OOOO@@OO$$$++++++@@@OOOoooooooooooooooo",
"ooo..ooooooooOOO+++++@@@@OOO@@@+++$$$+++++@@@@OOoooooooooo    oo",
"oo....ooooooOOO+####+++@@OOOO@@++++++++++@@@@@OOo....oooo      o",
"......oooooOOO++####+++@@OOOOO@@+++++++++@@@@@OO......  o       ",
"......     OO++#####+++++OOOOOOOO+++++++@@@@@$OO......       ...",
".......   OOO++#####+$$++++OOOOOOO@@++++@@@$$$OO.....       ....",
".  .....  OOO++###+++$$$++OOO+@OOO@@@@@@@@$$$$OO.........  .....",
"     .....OO@++++++++$$$$OOO++@@OO@@$$$$$$$$$$OO................",
"          OO@@++++++++$$$OOO+++OOO@@@$$$$$$$$OOO................",
"          OO@@+++++++++$$$$OOOOOOO++@@$$$$$$OOO ..   .......  ..",
".         OO@@+++++++++$$$$$$$OOO++++@@$$$$OOOO .      ....    .",
"          OO@@++++++++$$$$$$$$OOO++++@@$$$OOOOO                 ",
"         .OO@@@+++++++$$$++++++++++++@@$$$$$OOO                 ",
"        ..OO@@@@++++++$$+++++++++++++@@$$$$$$OOO       ....     ",
"...    ....OO@@@@++++++++++++++++++++@@$$$$$$OOO  ...........  .",
"...........OO@@@@@++++++++++++++++++@@@$$$$$$OOO................",
"....XXXX...OOO@@@@@@@++++++++++++++@@@$$$$$$OOOO................",
"...XXXXXX   OO@@@@@@@@@@+++++++++@@@@@$$$$$$OOO    .............",
"XX.XXXXXXXX%OOO@@@@@@@@@@@@@@@@@@@@@@$$$$$$OOOO&...............X",
"XXXXXXXXXX%%%OOO@@@@@@@@@@@@@@@@@@@@$$$$$$OOOO**&.............XX",
"XXooooXXXX====OOO$@@@@@@@@@@@@@@@@$$$$$$OOOOOO*** ...........XXX",
"oooooooXXo=====OOOO$$@@@@@@@@@@@$$$$$$OOOOOOO****     .......XXX",
"oooooooXoo======OOOOOOO$$$@@@$$$$OOOOOOOOOO******     .....XXXXo",
"ooooooooooo=======OOOOOOOOOOOOOOOOOOOOO=***=****       ooooooXoo",
"oooooooooooo==========OOOOOOOOOOOO*************       oo  oooooo",
"ooo   ooooo  o===**============***==*********         o    ooooo",
"oo     oo      o ***===========**=====****                     o",
"oo     o            oo===============oooooooooo                 ",
"       o            ooooo   ooooooooo                           ",
"                                        ......                  ",
"                                      ......... ....      ooo   ",
"        ...                         .................   oooooo  ",
"oo...  .....                       ..................ooooooooooo",
"o.......  ...      ...           ......     ............oooooooo",
"..  ...    ...    .....   ..   .......       ...   .......ooo...",
"                 ............                ..                 "
};
