/* XPM */
static char *_4ab004d20b145e1a190003969551698HwkFLzlnAB2GPFsK[] = {
/* columns rows colors chars-per-pixel */
"64 64 14 1 ",
"  c #9BB94E",
". c #79A863",
"X c #679175",
"o c #161C2E",
"O c #BFBA5B",
"+ c #977B6B",
"@ c #D5B583",
"# c #EFE1AB",
"$ c white",
"% c #433D5B",
"& c #775396",
"* c #8A894D",
"= c #718844",
"- c #5A7C52",
/* pixels */
"  ..     ....    ...............                                ",
"..... ........  ....   .....                       XXXXXX   XXX ",
"........oooo.......                 XXXXX  XXX   ooooXXXXX XXXXX",
"X......ooooooo.....     ooooooooooooooXXXXXXXXXoooooooOXXXXXXOOX",
"XXOO..ooooooooo...    ooooooooooooooooooXXXOOXoooooooooOXXXXOOOO",
"OOOOOoooo+++oooo....ooooooo@#########oooooOOOoooo@@++oooOXXOOOOO",
"OOOOOooo+++@@ooo...oooooo$$############ooooOOooo@@@@++ooOOXOO  O",
"OOOOOoo+++@@@@oooooooo@#$$##############ooooOoo@@@@@++ooOOOO    ",
"     oo+++@@@@ooooooo##$$#################ooooo@@@@@++oo..      ",
"     oo+++@@@@ooooo@##$$$##################ooooo@@@+++oo.....   ",
"   ..ooo+++@@oooooo@#$$$$#################$oooooo++++oo.........",
"......ooo+++oooooo@@#$$$$$$###############$$ooooooooooo.........",
".....OOoooooooooo@@##$$#$$$#$$###$#####$##$$$ooooooooo..........",
"    OOOOOoooo ooo@@##$$#$$##$$###$$####$##$$$o@oooooo  .......  ",
"OO  OOOOOoooooooo@@##$$#$$##$$##$$$###$$####$#@ooooo   ....     ",
"OOOOOOOOOooo ooo@@@###$######$##$$$###$$######@ooooo          OO",
"OOOOO...OOoooooo@@@###################$########ooooo         OOO",
".........Ooooo+o@@@#####@######################ooooo        ....",
"  ........oooo+o@@@#####@######################@ooo        .....",
"   ........ooo++@@@#####@################@#####@ooo     ......  ",
"      ....oooo++@@@#@###@#########@######@######ooo             ",
"       ...oooo++@@@@@#############@######@#######ooo            ",
"  OOO  .. oooo++@@@@@#############@######@#######ooo   XXXXX    ",
" OOOOO ..oooo+++@@@@@###@#########@#############@@oo  XXXXXXX   ",
"OOOOOOOO.oooo++++@@@@@##@#########@######@###@##@@oooXXXOOOOXX  ",
"OOOOOOOOoooo@@++++@+@@@@@########@@@#####@###@#@@@ooooXOOOOOOOX ",
"OOOOOOOoooo@@@@+++@+@@@@@#@######@@@@###@@@##@@@@++oooOOOOOOOOOO",
"OOOoooooo###@@@+++++@@@@@@@@@@###@@@@@@@@@@@@@@+@++@oooOOOOOOOOO",
"OOOooooo####@@@@+++++@@@@@@@@@@@@@@@@@@@@@@@@@@+++@@@oooOOOOOOOO",
"OOOoo########@@@@@@++++@@@@@@@@@@@@@+@@o@@@@@@+++@@@@@oooo    OO",
"OO.oo#########@@@@@@@@@@@@@+@+@@@@@@+++oo+++@@@@@@@@@##oooooo  O",
"...ooo#####@@o@#@@@@@@@@@@++@+@@++++++ooo+++@@@@@@@@@######oo   ",
"....ooo##@@@oo##@@@@@@@@@@++@@@@@@@+++oooo@@@@@@@@oo@@####ooo...",
"....ooo@@@@oo###@@o##@@@@@+@@@@@@@@@@oooooo@@@@##@@ooo@###oo....",
".  ..oooooooo##@@oo#####@@@@@@@@@@@@@ooooooo@#####@@oooooooo....",
"     ..oooo####@ooo#####@@@@@#######ooooooooo#######@@@oooo.....",
"         ooo##oooo######@@@########oooo%%ooooo########oooo......",
"          oooooooo#####@@@######oooooo%%%%%oooooooooooooo...  ..",
".          ooooooooooo@@@#####ooooooo%%%%%%%oooooooooooo...    .",
"          ...ooooooooooooooooooooooo%%%&&%%%%oooooooo           ",
"         ....ooooooooooooooooooooo%%%%&&&%%%%ooooo              ",
"        .....ooooooo%ooooooooooo%%%%%&&&&&%%%%oooo     ....     ",
"...    .......oooooo%%%%%%%%%%%%%%%&&&&&&&&&%%ooo ...........  .",
"..............oooooo%%%%&&%%%&&&&&&&&&&&&&&%%oooo...............",
"....XXXX.......oooooo%%&&&%&&&&&&&&&&&&&&&%%oooo................",
"...XXXXXX       oooooo%%%%%%%%%%%%%%%%%%%%%oooo    .............",
"XX.XXXXXXXXXXX  Xooooooooo%%%%%%%%%%%%%%%oooooo................X",
"XXXXXXXXXXXXXXXXXOoooooooooooooooooooooooooooo  ..............XX",
"XXOOOOXXXXOOOOXXOOOOooooooooooooooooooooooooo     ...........XXX",
"OOOOOOOXXOOOOOOOOOO*ooooooo=======**oooooooo          .......XXX",
"OOOOOOOXOOOOOOOO****oooooo==========*oooooo====       .....XXXXO",
"OOOOOOOOOOOOOO*******ooooo=***=======ooooo=*=====      OOOOOOXOO",
"OOOOOOOOOOOOO********ooooo*****=======oooo========    OO  OOOOOO",
"OOO   OOOOO =****==***ooo******===**==ooo==========   O    OOOOO",
"OO     OO   ===*====**ooo******==*****ooo==========            O",
"OO     O    ========*oooo*************oooo*****====             ",
"       O    ========*****===*********==============             ",
"             ===========================------====              ",
"              ========================---------=-...      OOO   ",
"        ...     ====================-----------......   OOOOOO  ",
"OO...  .....       ================---------.........OOOOOOOOOOO",
"O.......  ...      ...  =========------     ............OOOOOOOO",
"..  ...    ...    .....   ..   .......       ...   .......OOO...",
"                 ............                ..                 "
};
