/* XPM */
static char *_abc45ea839f4c95df3e8302f6043c8bHqeDY6LJtvzy1w7u[] = {
/* columns rows colors chars-per-pixel */
"64 64 14 1 ",
"  c #9BB94E",
". c #79A863",
"X c #679175",
"o c #BFBA5B",
"O c #161C2E",
"+ c #D5B583",
"@ c #EFE1AB",
"# c white",
"$ c #977B6B",
"% c #693D5B",
"& c #B65555",
"* c #718844",
"= c #8A894D",
"- c #5A7C52",
/* pixels */
"  ..     ....    ...............                                ",
"..... ........  ....   .....                       XXXXXX   XXX ",
"...................                 XXXXX  XXX   ooooXXXXX XXXXX",
"X..................                XXXXXXXXXXXX oooooooXXXXXXooX",
"XXoo...  ..   ....      OOOOOOOOOOOOOOooXXXooXXoooooooooXXXXoooo",
"ooooo..        .......OOOOOOOOOOOOOOOOOOoooooooooooooooooXXooooo",
"ooooooo        .....OOOOOOO+@@@@@@@@@OOOOOooooooooo...ooooXoo  o",
"ooooooooo      ....OOOOOO##@@@@@@@@@@@@OOOOooooooo.....ooooo    ",
"     ooo      ..oOOOOO+@##@@@@@@@@@@@@@@OOOOo.............      ",
"                OOOOO@@##@@@@@@@@@@@@@@@@@OOO................   ",
"   ......       OOO+@@###@@@@@@@@@@@@@@@@@@OOO..................",
".........      OOOO+@####@@@@@@@@@@@@@@@@@#OOOO ................",
".....ooo.     OOOO++@######@@@@@@@@@@@@@@@##OOO....   ..........",
"    ooooo     OOO++@@##@###@##@@@#@@@@@#@@###OOO..     .......  ",
"oo  oooooo    OOO++@@##@##@@##@@@##@@@@#@@###O+OO      ....     ",
"oooooooooo   OOOO++@@##@##@@##@@###@@@##@@@@#@+OO             oo",
"ooooo...oooooOOO+++@@@#@@@@@@#@@###@@@##@@@@@@+OOO           ooo",
".........oooOOOO+++@@@@@@@@@@@@@@@@@@@#@@@@@@@@OOO          ....",
"  ..........OO$O+++@@@@@+@@@@@@@@@@@@@@@@@@@@@@OOOO        .....",
"   ........OOO$O+++@@@@@+@@@@@@@@@@@@@@@@@@@@@@+OOO     ......  ",
"      .....OOO$$+++@@@@@+@@@@@@@@@@@@@@@@+@@@@@+OOO             ",
"       ...OOOO$$+++@+@@@+@@@@@@@@@+@@@@@@+@@@@@@OOO             ",
"  ooo  .. OOOO$$+++++@@@@@@@@@@@@@+@@@@@@+@@@@@@@OOO   XXXXX    ",
" ooooo .. OOOO$$+++++@@@@@@@@@@@@@+@@@@@@+@@@@@@@OOO  XXXXXXX   ",
"oooooooo.OOOO$$$+++++@@@+@@@@@@@@@+@@@@@@@@@@@@@++OOXXXXooooXX  ",
"oooooooooOOOO$$$$+++++@@+@@@@@@@@@+@@@@@@+@@@+@@++OOOOXoooooooX ",
"oooOOOOOOOOO++$$$$+$+++++@@@@@@@@+++@@@@@+@@@+@+++OOOOoooooooooo",
"oooOOOOOOOO++++$$$+$+++++@+@@@@@@++++@@@+++@@++++$$OOOOooooooooo",
"oooOO@@@@@@@+++$$$$$++++++++++@@@++++++++++++++$+$$+OOOOOOOOOooo",
"oooOO@@@@@@@++++$$$$$++++++++++++++++++++++++++$$$+++@@@OOOOO oo",
"oo.OOO@@@@@@@++++++$$$$+++++++++++++$++O++++++$$$++++@@@@@@OO  o",
"....OOO@@@@++++++++++++++++$+$++++++$$$OO$$$++++++++++@@@@@OO   ",
"....OOO+++++OOO@++++++++++$$+$++$$$$$$OOO$$$++++++OO++++@@OO ...",
".....OOOO++OOO@@++++++++++$$+++++++$$$OOOO+++++@@++OOOOOOOOO....",
".  ...OOOOOOO@@@++O@@+++++$++++++++++OOOOOO+++@@@@++OOOOOOO.....",
"     ...OO@@@@@++OO@@@@@+++++++++++++OOOOOOO+@@@@@@@+++OOOO.....",
"         OO@@@+OOO@@@@@@+++++@@@@@@@OOOOOOOOO@@@@@@@@@OOOO......",
"         OOOOOOOO@@@@@OO+++@@@@@@@@OOOO%%OOOOOO@@@@@OOOOO...  ..",
".         OOOOOOOOOOOOO@@@@@@@@@OOOOOO%%%%%%OOOOOOOOOOOO...    .",
"          ..OOOOOOOOOOOOO@@@@@OOOOOOO%%%%%%%%OOOOOOOOOOOO       ",
"         ..OOOOOOOOOOOOOOOOOOOOOOOOO%%%%&&%%%%%%OOOOOOOOOO      ",
"        ..OOOO$$$OOOO%%OOOOOOOOOOO%%%%%&&&&%%%%%OOOO++$$OOO     ",
"...    ...OOO$$$++OOO%%%OOOOOOOO%%%%%%&&&&&&&%%%OOO++++$$OO..  .",
"..........OO$$$++++OOO%%%%%%%%%%%%%%%&&&&&&&&&&%OO+++++$$OO.....",
"....XXXX..OO$$$++++OOO%&&%%%&&&&&&&&&&&&&&&&&&%%OO+++++$$OO.....",
"...XXXXXX OO$$$++++OOO&&&%&&&&&&&&&&&&&&&&&&&%%OOOO+++$$$OO.....",
"XX.XXXXXXXOOO$$$++OOO%%%%%%%%%%%%%%%%%%%%%%%%%OOOOOO$$$$OO.....X",
"XXXXXXXXXXXOOO$$$OOOOOOOO%%%%%%%%%%%%%%%%%%%OOOOOOOOOOOOOO....XX",
"XXooooXXXXooOOOOOOOOOOOOOOOOOOOOOOOOOOOOOOOOOOOOO .OOOOOO....XXX",
"oooooooXXoooooOOOOOOOOOOOOOOOOOOOOOOOOOOOOOOOOOO**    .......XXX",
"oooooooXoooooo======OOOOOO**********====OOOOOOO****   .....XXXXo",
"ooooooooooooo=========OOOOO===*******==OOOOOOO******   ooooooXoo",
"ooooooooooooo==========OOOO====********OOO**********  oo  oooooo",
"ooo   ooooo  ====**===OOOO=====***==***OOOO*********  o    ooooo",
"oo     oo    **=****===========**=====**************           o",
"oo     o      ******===========================****             ",
"       o       *****=====***=========*************              ",
"                 ***********************------**                ",
"                    ******************-------.. ....      ooo   ",
"        ...              ***********----.............   oooooo  ",
"oo...  .....                       ..................ooooooooooo",
"o.......  ...      ...           ......     ............oooooooo",
"..  ...    ...    .....   ..   .......       ...   .......ooo...",
"                 ............                ..                 "
};
