/* XPM */
static char *_1d52121845b48f3db5d66e0bfa56986fCx2hRrYjvTK2kLQ[] = {
/* columns rows colors chars-per-pixel */
"64 64 14 1 ",
"  c #9BB94E",
". c #79A863",
"X c #679175",
"o c #161C2E",
"O c #BFBA5B",
"+ c #EFE1AB",
"@ c #D5B583",
"# c white",
"$ c #977B6B",
"% c #433D5B",
"& c #775396",
"* c #8A894D",
"= c #718844",
"- c #5A7C52",
/* pixels */
"  ..     ....    ...............                                ",
"..... ........  ....   .....                       XXXXXX   XXX ",
"...................       ooooooooooooooX  XXX   OOOOXXXXX XXXXX",
"X..................     ooooooooooooooooooXXXXX OOOOOOOXXXXXXOOX",
"XXOO...  ..   ....    ooooo+++++++++@oooooooOXXOOOOOOOOOXXXXOOOO",
"OOOOO..        ......oooo++++++++++++##ooooooOOOOOOOOOOOOXXOOOOO",
"OOOOOOO        .....oooo++++++++++++++##+@oooooOOOO...OOOOXOO  O",
"OOOOOOOOO      ....ooo+++++++++++++++++##++oooooOO.....OOOOO    ",
"     OOO      ..OOooo++++++++++++++++++###++@ooo..........      ",
"                 oooo#+++++++++++++++++####+@oooo............   ",
"   ......        ooo##+++++++++++++++######+@@oooo..............",
".........       ooo###++#+++++#+++##+###+##++@@ooo..............",
".....OOO.      oo@o###++#++++##+++##++##+##++@@ooo.   ..........",
"    OOOOO      oo@+#++++##+++###++##++##+##++@@oooo    .......  ",
"OO  OOOOOO    ooo@++++++##+++###++#++++++#+++@@@ooo    ....     ",
"OOOOOOOOOO    ooo++++++++#+++++++++++++++++++@@@oooo          OO",
"OOOOO...OOOOOoooo++++++++++++++++++++++@+++++@@@o$oo         OOO",
".........OOOOooo@++++++++++++++++++++++@+++++@@@o$ooo       ....",
"  ...........ooo@+++++@++++++++++++++++@+++++@@@$$ooo      .....",
"   ..........ooo++++++@++++++@+++++++++@+++@+@@@$$oooo  ......  ",
"      ......ooo+++++++@++++++@+++++++++++++@@@@@$$oooo          ",
"       ...  ooo+++++++@++++++@+++++++++++++@@@@@$$oooo          ",
"  OOO  ..   oo@@+++++++++++++@+++++++++@+++@@@@@$$$ooooXXXXX    ",
" OOOOO .. oooo@@++@+++@++++++@+++++++++@++@@@@@$$$$ooooXXXXXX   ",
"OOOOOOOO..oooo@@@+@+++@+++++@@@++++++++@@@@@$@$$$$@@oooooooooX  ",
"OOOOOOOOOoooo$$@@@@++@@@+++@@@@++++++@+@@@@@$@$$$@@@@ooooooooOX ",
"OOOooooooooo@$$@$@@@@@@@@@@@@@@+++@@@@@@@@@@$$$$$@@@+++++++ooOOO",
"OOOooooo+++@@@$$$@@@@@@@@@@@@@@@@@@@@@@@@@@$$$$$@@@@+++++++ooOOO",
"OOOoo++++++@@@@$$$@@@@@@o@@$@@@@@@@@@@@@@$$$$@@@@@@+++++++oooOOO",
"OOOoo+++++@@@@@@@@@@$$$oo$$$@@@@@@$@$@@@@@@@@@@@@@@@@++++ooo  OO",
"OO..oo++@@@@oo@@@@@@$$$ooo$$$$$$@@$@$$@@@@@@@@@@+ooo@@@@@ooo   O",
"....ooooooooo@@++@@@@@oooo$$$@@@@@@@$$@@@@@@@@@@++ooo@@oooo     ",
".....ooooooo@@++++@@@oooooo@@@@@@@@@@$@@@@@++o@@+++ooooooo   ...",
".....oooo@@@+++++++@ooooooo@@@@@@@@@@@@@+++++oo@@+++++oo    ....",
".  ...oooo+++++++++ooooooooo++++++oooo@@++++++ooo@+++oo..  .....",
"     ..oooooooooooooooo%%oooo+++ooooooo@oo+++++oooooooo.........",
"         ooooooooooo%%%%%%oooooooooooooo+ooooooooooooo..........",
"          ooooooooo%%%%%%%%ooooooo$$$oooooooooooooo  .......  ..",
".            oooo%%%%%&%%%%%ooooo@@$$$oooooooooooo     ....    .",
"          ...oooo%%%%%&&%%%%%ooo@@@@$$$oo%%ooooooo              ",
"         ....oooo%%%%&&&&&%%%ooo@@@@$$$oo%%%oooooo              ",
"        ......ooo%%&&&&&&&&&%ooo@@@@$$$oo%%oooooo      ....     ",
"...    .......oooo%%&&&&&&&&&&ooo@@$$$ooo%%oooooo ...........  .",
"...............oooo%%&&&&&&&&&oooo$$$ooo%%oooooo................",
"....XXXX........oooo%%%%%%%%%%%oooooooo%%oooooo.................",
"...XXXXXX       oooooo%%%%%%%%%%%ooooooooooooo     .............",
"XX.XXXXXXXXXXX  Xoooooooooooooooooooooooooooo .................X",
"XXXXXXXXXXXXXXXXXOooooooooooooooooooooooooo     ..............XX",
"XXOOOOXXXXOOOOXXOOooooooo***=====*ooooooo===      ...........XXX",
"OOOOOOOXXOOOOOOO*oooooo***========oooooooooo===       .......XXX",
"OOOOOOOXOOOOOO***ooooo****=========oooooooooo====     .....XXXXO",
"OOOOOOOOOOOOO***ooooo*****=***======ooooooooo=====     OOOOOOXOO",
"OOOOOOOOOOOO**o*oooo***********===========oo=======   OO  OOOOOO",
"OOO   OOOOO =*ooooo************===**=====oo========   O    OOOOO",
"OO     OO   ===ooo==***********==*****=============            O",
"OO     O    ========***************************====             ",
"       O     =======*****===*********=============              ",
"              ==========================------===               ",
"                ======================--------- ....      OOO   ",
"        ...        =================--------.........   OOOOOO  ",
"OO...  .....            ===========----..............OOOOOOOOOOO",
"O.......  ...      ...           ......     ............OOOOOOOO",
"..  ...    ...    .....   ..   .......       ...   .......OOO...",
"                 ............                ..                 "
};
