/* XPM */
static char *b3f1f38e65134937c568917f164c70370EWBYdaWcuUyqRdU[] = {
/* columns rows colors chars-per-pixel */
"64 64 15 1 ",
"  c #9BB94E",
". c #79A863",
"X c #679175",
"o c #161C2E",
"O c #BFBA5B",
"+ c #D5B583",
"@ c #EFE1AB",
"# c white",
"$ c #977B6B",
"% c #433D5B",
"& c #775396",
"* c #8A894D",
"= c #4E6D5E",
"- c #718844",
"; c #5A7C52",
/* pixels */
"  ..     ....    ...............                                ",
"..... ........  ....   .....                       XXXXXX   XXX ",
"...................     ooooooooooooooXXX  XXX   OOOOXXXXX XXXXX",
"X..................   ooooooooooooooooooXXXXXXX OOOOOOOXXXXXXOOX",
"XXOO...  ..   ....  ooooooo+@@@@@@@@@oooooXOOXXOOOOOOOOOXXXXOOOO",
"OOOOO..        ....oooooo##@@@@@@@@@@@@ooooOOOOOOOOOOOOOOXXOOOOO",
"OOOOOOO        ..ooooo+@##@@@@@@@@@@@@@@ooooOOOOOOO...OOOOXOO  O",
"OOOOOOOOO      .ooooo@@##@@@@@@@@@@@@@@@@@oooOOOOO.....OOOOO    ",
"     OOO      ..ooo+@@###@@@@@@@@@@@@@@@@@@ooo............      ",
"               oooo+@####@@@@@@@@@@@@@@@@@#oooo..............   ",
"   ......     oooo++@######@@@@@@@@@@@@@@@##ooo.................",
".........     ooo++@@##@###@##@@@#@@@@@#@@###ooo................",
".....OOO.     ooo++@@##@##@@##@@@##@@@@#@@###o+oo..   ..........",
"    OOOOO    oooo++@@##@##@@##@@###@@@##@@@@#@+oo.     .......  ",
"OO  OOOOOO   ooo+++@@@#@@@@@@#@@###@@@##@@@@@@+ooo     ....     ",
"OOOOOOOOOO  oooo+++@@@@@@@@@@@@@@@@@@@#@@@@@@@@ooo            OO",
"OOOOO...OOOOoo$o+++@@@@@+@@@@@@@@@@@@@@@@@@@@@@oooo          OOO",
".........OOooo$o+++@@@@@+@@@@@@@@@@@@@@@@@@@@@@+ooo         ....",
"  .........ooo$$+++@@@@@+@@@@@@@@@@@@@@@@+@@@@@+ooo        .....",
"   .......oooo$$+++@+@@@+@@@@@@@@@+@@@@@@+@@@@@@ooo     ......  ",
"      ....oooo$$+++++@@@@@@@@@@@@@+@@@@@@+@@@@@@@ooo            ",
"       ...oooo$$+++++@@@@@@@@@@@@@+@@@@@@+@@@@@@@ooo            ",
"  OOO  ..oooo$$$+++++@@@+@@@@@@@@@+@@@@@@@@@@@@@++oo   XXXXX    ",
" OOOOO ..oooo$$$$+++++@@+@@@@@@@@@+@@@@@@+@@@+@@++ooooXXXXXXX   ",
"OOOooooooooo++$$$$+$+++++@@@@@@@@+++@@@@@+@@@+@+++ooooXXOOOOXX  ",
"OOOoooooooo++++$$$+$+++++@+@@@@@@++++@@@+++@@++++$$ooooOOOOOOOX ",
"OOOoo@@@@@@@+++$$$$$++++++++++@@@++++++++++++++$+$$+oooooooooOOO",
"OOOoo@@@@@@@++++$$$$$++++++++++++++++++++++++++$$$+++@@@oooooOOO",
"OOOooo@@@@@@@++++++$$$$+++++++++++++$++o++++++$$$++++@@@@@@ooOOO",
"OOO.ooo@@@@++++++++++++++++$+$++++++$$$oo$$$++++++++++@@@@@oo OO",
"OO..ooo+++++ooo@++++++++++$$+$++$$$$$$ooo$$$++++++oo++++@@oo   O",
".....oooo++ooo@@++++++++++$$+++++++$$$oooo+++++@@++ooooooooo    ",
"......ooooooo@@@++o@@+++++$++++++++++oooooo+++@@@@++ooooooo  ...",
"....... oo@@@@@++oo@@@@@+++++++++++++ooooooo+@@@@@@@+++oooo ....",
".  ..... oo@@@+ooo@@@@@@++oooo@@@@@@ooooooooo@@@@@@@@@oooo .....",
"     ....oooooooo@@@@@oo+ooooooo@@@oooo%%oooooooooooooooo.......",
"          ooooooooooooo@oooooooooooooo%%%%%%ooooooooooo.........",
"             oooooooooooooo$$$ooooooo%%%%%%%%ooooooooo......  ..",
".             oooooooooooo$$$++ooooo%%%%%&%%%%%oooo    ....    .",
"          ... ooooooo%%oo$$$++++ooo%%%%%&&%%%%%oooo             ",
"         .....oooooo%%%oo$$$++++ooo%%%&&&&&%%%%oooo             ",
"        .......oooooo%%oo$$$++++ooo%&&&&&&&&&%%ooo     ....     ",
"...    ........oooooo%%ooo$$$++ooo&&&&&&&&&&%%oooo...........  .",
"................oooooo%%ooo$$$oooo&&&&&&&&&%%oooo...............",
"....XXXX.........oooooo%%oooooooo%%%%%%%%%%%oooo................",
"...XXXXXX        Xooooooooooooo%%%%%%%%%%%oooooo   .............",
"XX.XXXXXXXXXXX  XXXoooooooooooooooooooooooooooo................X",
"XXXXXXXXXXXXXXXXXOOOXooooooooooooooooooooooooo  ..............XX",
"XXOOOOXXXXOOOOXXOOOO*==ooooooo---*****-ooooooo    ...........XXX",
"OOOOOOOXXOOOOOOOO***oooooooooo----*****-*oooooo-      .......XXX",
"OOOOOOOXOOOOOOO****oooooooooo-------******ooooo---    .....XXXXO",
"OOOOOOOOOOOOOO*****ooooooooo**-------***---ooooo---    OOOOOOXOO",
"OOOOOOOOOOOOO*******oo*********-------------oooo-o--  OO  OOOOOO",
"OOO   OOOOO  ****--**oo********---**---------ooooo--  O    OOOOO",
"OO     OO    --*----***********--*****--------ooo---           O",
"OO     O     -------***************************-----            ",
"       O      ------*****---*********--------------             ",
"               -------------------------;;;;;;----              ",
"                 ---------------------;;;;;;;;;-....      OOO   ",
"        ...         ----------------;;;;;;;;;........   OOOOOO  ",
"OO...  .....             ----------;;;;;.............OOOOOOOOOOO",
"O.......  ...      ...           ......     ............OOOOOOOO",
"..  ...    ...    .....   ..   .......       ...   .......OOO...",
"                 ............                ..                 "
};
