/* XPM */
static char *d054dcd261974b5d90145f3dde787266YUMjhMzf5g1D8imb[] = {
/* columns rows colors chars-per-pixel */
"64 64 14 1 ",
"  c #9BB94E",
". c #79A863",
"X c #679175",
"o c #161C2E",
"O c #BFBA5B",
"+ c #D5B583",
"@ c #EFE1AB",
"# c white",
"$ c #977B6B",
"% c #433D5B",
"& c #775396",
"* c #8A894D",
"= c #718844",
"- c #5A7C52",
/* pixels */
"  ..     ....    ...............                                ",
"..... ........  ....   .....                       XXXXXX   XXX ",
"...................     ooooooooooooooXXX  XXX   OOOOXXXXX XXXXX",
"X..................   ooooooooooooooooooXXXXXXX OOOOOOOXXXXXXOOX",
"XXOO...  ..   ....  ooooooo+@@@@@@@@@oooooXOOXXOOOOOOOOOXXXXOOOO",
"OOOOO..        ....oooooo##@@@@@@@@@@@@ooooOOOOOOOOOOOOOOXXOOOOO",
"OOOOOOO        ..ooooo+@##@@@@@@@@@@@@@@ooooOOOOOOO...OOOOXOO  O",
"OOOOOOOOO      .ooooo@@##@@@@@@@@@@@@@@@@@oooOOOOO.....OOOOO    ",
"     OOO      ..ooo+@@###@@@@@@@@@@@@@@@@@@ooo............      ",
"               oooo+@####@@@@@@@@@@@@@@@@@#oooo..............   ",
"   ......     oooo++@######@@@@@@@@@@@@@@@##ooo.................",
".........     ooo++@@##@###@##@@@#@@@@@#@@###ooo................",
".....OOO.     ooo++@@##@##@@##@@@##@@@@#@@###o+oo..   ..........",
"    OOOOO    oooo++@@##@##@@##@@###@@@##@@@@#@+oo.     .......  ",
"OO  OOOOOO   ooo+++@@@#@@@@@@#@@###@@@##@@@@@@+ooo     ....     ",
"OOOOOOOOOO  oooo+++@@@@@@@@@@@@@@@@@@@#@@@@@@@@ooo            OO",
"OOOOO...OOOOoo$o+++@@@@@+@@@@@@@@@@@@@@@@@@@@@@oooo          OOO",
".........OOooo$o+++@@@@@+@@@@@@@@@@@@@@@@@@@@@@+ooo         ....",
"  .........ooo$$+++@@@@@+@@@@@@@@@@@@@@@@+@@@@@+ooo        .....",
"   .......oooo$$+++@+@@@+@@@@@@@@@+@@@@@@+@@@@@@ooo     ......  ",
"      ....oooo$$+++++@@@@@@@@@@@@@+@@@@@@+@@@@@@@ooo            ",
"       ...oooo$$+++++@@@@@@@@@@@@@+@@@@@@+@@@@@@@ooo            ",
"  OOO  ..oooo$$$+++++@@@+@@@@@@@@@+@@@@@@@@@@@@@++oo   XXXXX    ",
" OOOOO ..oooo$$$$+++++@@+@@@@@@@@@+@@@@@@+@@@+@@++ooo XXXXXXX   ",
"OOOOOOOOoooo++$$$$+$+++++@@@@@@@@+++@@@@@+@@@+@+++ooooXXOOOOXX  ",
"OOOOOOOoooo++++$$$+$+++++@+@@@@@@++++@@@+++@@++++$$oooXOOOOOOOX ",
"OOOoooooo@@@+++$$$$$++++++++++@@@++++++++++++++$+$$+oooOOOOOOOOO",
"OOOooooo@@@@++++$$$$$++++++++++++++++++++++++++$$$+++oooOOOOOOOO",
"OOOoo@@@@@@@@++++++$$$$+++++++++++++$++o++++++$$$+++++ooooOOOOOO",
"OOOoo@@@@@@@@@+++++++++++++$+$++++++$$$oo$$$+++++++++@@oooooo OO",
"OO.ooo@@@@@++o+@++++++++++$$+$++$$$$$$ooo$$$+++++++++@@@@@@oo  O",
"....ooo@@+++oo@@++++++++++$$+++++++$$$oooo++++++++oo++@@@@ooo   ",
"....ooo++++oo@@@++o@@+++++$++++++++++oooooo++++@@++ooo+@@@oo ...",
".....oooooooo@@++oo@@@@@+++++++++++++ooooooo+@@@@@++oooooooo....",
".  ....oooo@@@@+ooo@@@@@+++++@@@@@@@ooooooooo@@@@@@@+++oooo.....",
"     ....ooo@@oooo@@@@@@+++@@@@@@@@oooo%%ooooo@@@@@@@@oooo......",
"          oooooooo@@@@@+++@@@@@@oooooo%%%%%oooooooooooooo.......",
"           ooooooooooo+++@@@@@ooooooo%%%%%%%oooooooooooo....  ..",
".           oooooooooooooooooooooooo%%%&&%%%%oooooooooo....    .",
"          .ooooooooooooooooooooooo%%%%&&&%%%%ooooooooooo        ",
"         .oooo$$$ooooooooooooooo%%%%%&&&&&%%%%oooo++$$ooo       ",
"        ..ooo$$$++ooo%%%%%%%%%%%%%%&&&&&&&&&%%ooo++++$$oo..     ",
"...    ...oo$$$++++ooo%%&&%%%&&&&&&&&&&&&&&%%ooo+++++$$oo....  .",
"..........oo$$$++++ooo%&&&%&&&&&&&&&&&&&&&%%oooo+++++$$oo.......",
"....XXXX..oo$$$++++ooo%%%%%%%%%%%%%%%%%%%%%oooooo+++$$$oo.......",
"...XXXXXX ooo$$$++oooooooo%%%%%%%%%%%%%%%ooooooooo$$$$oo........",
"XX.XXXXXXXXooo$$$ooooooooooooooooooooooooooooo.ooooooooo.......X",
"XXXXXXXXXXXXooooooooooooooooooooooooooooooooo   .oooooo.......XX",
"XXOOOOXXXXOOOOooooO*ooooooo*=====***oooooooo      ...........XXX",
"OOOOOOOXXOOOOOOO****oooooo========***oooooo====       .......XXX",
"OOOOOOOXOOOOOO*******ooooo==========*ooooo*======     .....XXXXO",
"OOOOOOOOOOOOO********ooooo=***=======*oooo=*======     OOOOOOXOO",
"OOOOOOOOOOOO**********ooo******=======ooo==========   OO  OOOOOO",
"OOO   OOOOO =****==***ooo******===**==ooo==========   O    OOOOO",
"OO     OO   ===*====*oooo******==*****oooo=========            O",
"OO     O    ========***************************====             ",
"       O     =======*****===*********=============              ",
"              ==========================------===               ",
"                ======================--------- ....      OOO   ",
"        ...        =================--------.........   OOOOOO  ",
"OO...  .....            ===========----..............OOOOOOOOOOO",
"O.......  ...      ...           ......     ............OOOOOOOO",
"..  ...    ...    .....   ..   .......       ...   .......OOO...",
"                 ............                ..                 "
};
