/* XPM */
static char *_ce2f0017e5847a9e040f279f96b925cAAQVe1gNdTW9bZBP[] = {
/* columns rows colors chars-per-pixel */
"64 64 13 1 ",
"  c #9BB94E",
". c #79A863",
"X c #679175",
"o c #BFBA5B",
"O c #161C2E",
"+ c #2A485E",
"@ c #27716F",
"# c #5AB659",
"$ c #2F966A",
"% c #718844",
"& c #5A7C52",
"* c #4E6C5F",
"= c #8A884D",
/* pixels */
"  ..     ....    ...............                                ",
"..... ........  ....   .....                       XXXXXX   XXX ",
"...................                 XXXXX  XXX   ooooXXXXX XXXXX",
"X..................                XXXXXXXXXXXX oooooooXXXXXXooX",
"XXoo...  ..   ....               XXXooooXXXooXXoooooooooXXXXoooo",
"ooooo..        ..........     XXXXoooooooooooooooooooooooXXooooo",
"ooooooo        .............oXXoooooooooooooooooooo...ooooXoo  o",
"ooooooooo      .....oooooooooooooooooo...ooooooooo.....ooooo    ",
"     ooo      ..oooooooooooo      oo.......oo.............      ",
"                                        .....................   ",
"   ......                                   ....................",
".........                  oooo    OOOO         ................",
".....ooo.         OOOO    oooOOOO OOOOOO    .......   ..........",
"    ooooo        OOOOOOoOOOoOOOOOOOO++OO..........     .......  ",
"oo  oooooo      OOO@@OOOOOOOO###OOO++++OO              ....     ",
"oooooooooo      OO@@@@OOOOOO#####OO++++OOO                    oo",
"ooooo...oooooo  OO@@@@OO##OO#####OOO++OOOOO OOOO             ooo",
".........ooOOOoOOO@@@@O####O####OOOOO###OOOOOOOOO           ....",
"  ........OOOOOOOOO@@@$#########OOOO#####OOOOOOOOOOO       .....",
"   ......OOO++OOOOOOOO$#######$$OO#######$OO$$$OOOOOO   ......  ",
"      ...OO++++OOO##OO$$####$$$OO########$O$$$$$OO++O           ",
"       ..OO++++OO$###OO$$$$#############$$O$$$$$O++++OOOO       ",
"  ooo  .OOOO+++O$$###OO$$$$#########$$$#$$$$$$$$O++++OOOOOXX    ",
" ooooo OOOOOOOOO$$###OOOOO$$#######$$$$$###$$$$OO+++OOOOOOXXX   ",
"oooooooOOOO@@@OO$$##OOO##OO$##$$###$$$$$###$$$$OOOOOOOOOOOooXX  ",
"oooooOOOOO@@@@@O$$$$OO####O$#$$$$###$$$####OOOOO$$$OOOOOOoooooX ",
"ooooOOOOOO@@@@@O@@OOOO####$$$$$$$$$$$$$###OOOOO$$$$$OOOOOOoooooo",
"oooOOOOOOOO@@@@@@@O$$OO###$$$$$$$$$$$$$##OOOOOO$$$$$OOOOOOOooooo",
"oooOO++OOOOO@@@@@OO$$OOOO$$$$$$$$$@@@$$$$O$$$OO$$@@$OO@@@OOOoooo",
"oooO++++O++O+@@@@OO$$$$OO$$$$$$$$@@@@@$$$$$$$$OO@@@OO@@@@@OO  oo",
"oo.O+++++++++@@@@OO$$$$$O$@@$$$$$@@@@@$$@@@$$$OO@@@OO@@@@@OO   o",
"...OO+++O++++@@@@OOO$$$$$@@@@$$$$@@@@@$@@@@@$$O@@@@@@@@@@OOO    ",
"....OOOOO++++@@@@@OO@@@@@@@@@$$$@@@@@@@@@@@@$$O@@@@@@@@@OOO  ...",
".....OOO+++@@@@@@@@@@@@@@@@@@$@@@@$$$@@@@@@$$$$@@@@@@OOOOO% ....",
".  .OOO++++@@@++@@@$$$@@@@@@$$@@@$$$$@@@@@@@$$@@@@@@@@OOOOO&....",
"   %OOO++++@@++++@@$$$@@@@@$$$$@@$$$@@@@@@@@@@@@++@@@@O++OOO&...",
"   %OOOO++++@++++@@@$$@@@@@@$$$@@@@@@@@@@@@@@@@++++@@O++++OO&&..",
"  %%%OOOOO++++++@@@@@@@@@@@@@$$@@@@@@@@@+++@@@@+++++++++++OO%%..",
". %%%%OO++++++++@@+++++@@@@@@@@@@+++@@@+++++@@@+++++++++++OO%  .",
"  %%%OO+++++++++@+++++++@@@@@@@++++++@@+++++@@@@+++++++++OO%%   ",
"  %%%O+++++O++++++++++++@++@@@@@++++++++++++@@@@+++OOOOOOO%%%%  ",
" %%%%O++++OO+++++++++++@@+++@@@@++@@@++++++@@@@@++++OOOOO&&%%%  ",
".&&%%OO++OOO++++++O+++@@@@++@@@++@@@@++++++@@@@++++++++OOO&&&% .",
"..&&&OOOOOOO++++++O+++@@@@+++@@++@@@@+++++++@@++++++++++OOO&&&..",
"..&&**OOOOOOO++++OO++++@@++++++++@@@@O+++++++++++O++++++OOO&&...",
"...******%OOOOOOOOOO++++++++++++++@@+O+++++++++OOOO++++OOOO&&...",
"XX.********OOOOOOOOOOOO++++++O+++++OOO++++O+++++OOOOOOOOOO&&&..X",
"XXXX************OOOOOO+++++++OO++OOOOOO+++OO++++OOOOOOOOO&&&..XX",
"XXooooX***=oo=**===OOO++++++OOOOOOOOOOOOOOOOOOO%%%&&OOO&&&...XXX",
"oooooooX*=ooo=======OOO++++OOOOOOO=====OOOOO%%%%%%%%%%&&&....XXX",
"oooooooXoooooo============%%%%%%%%%%=======%%%  %%%%% .....XXXXo",
"oooooooooooooooooooo======%===%%%%%%%===%%%=%%   %     ooooooXoo",
"oooooooooooooooooooooo========o   %%%%%%%%%           oo  oooooo",
"ooo   ooooo  oooo  oooooooooooo   oo                  o    ooooo",
"oo     oo      o    ooooooooooo  ooooo                         o",
"oo     o            ooooooooooooooooooooooooooo                 ",
"       o            ooooo   ooooooooo                           ",
"                                        ......                  ",
"                                      ......... ....      ooo   ",
"        ...                         .................   oooooo  ",
"oo...  .....                       ..................ooooooooooo",
"o.......  ...      ...           ......     ............oooooooo",
"..  ...    ...    .....   ..   .......       ...   .......ooo...",
"                 ............                ..                 "
};
